<?xml version="1.0" encoding="UTF-8" standalone="no"?><!DOCTYPE svg PUBLIC "-//W3C//DTD SVG 1.1//EN" "http://www.w3.org/Graphics/SVG/1.1/DTD/svg11.dtd"><svg width="100%" height="100%" viewBox="0 0 1920 1080" version="1.1" xmlns="http://www.w3.org/2000/svg" xmlns:xlink="http://www.w3.org/1999/xlink" xml:space="preserve" xmlns:serif="http://www.serif.com/" style="fill-rule:evenodd;clip-rule:evenodd;stroke-linejoin:round;stroke-miterlimit:2;"><rect id="BG" x="0" y="-0" width="1920" height="1080" style="fill:#091413;"/><path d="M1740.589,540c0,189.693 -154.006,343.699 -343.699,343.699l-867.589,0c-189.693,0 -343.699,-154.006 -343.699,-343.699c0,-189.693 154.006,-343.699 343.699,-343.699l867.589,0c189.693,0 343.699,154.006 343.699,343.699Z" style="fill:#285a48;"/><path d="M1698.947,540c0,170.455 -138.388,308.842 -308.842,308.842l-860.21,0c-170.455,0 -308.842,-138.388 -308.842,-308.842c0,-170.455 138.388,-308.842 308.842,-308.842l860.21,0c170.455,0 308.842,138.388 308.842,308.842Z" style="fill:#408a71;"/></svg>